<svg width="12" height="10" viewBox="0 0 12 10" fill="none" xmlns="http://www.w3.org/2000/svg">
<path d="M4.56387 3.87777L1.99572 4.11867C1.9031 4.12816 1.8212 4.18054 1.79049 4.26016C1.75977 4.33977 1.79049 4.42268 1.85874 4.47507C2.62216 5.06453 3.76925 5.94728 3.76925 5.94728C3.76827 5.94728 3.45432 7.23139 3.24567 8.08815C3.23573 8.12693 3.23932 8.16732 3.25602 8.2044C3.27272 8.24148 3.3018 8.27365 3.33972 8.297C3.37764 8.32034 3.42277 8.33385 3.4696 8.33588C3.51643 8.33791 3.56296 8.32837 3.6035 8.30843C4.50245 7.87613 5.84892 7.22603 5.84892 7.22603L8.09337 8.30884C8.17527 8.34679 8.27765 8.34597 8.35711 8.29688C8.39492 8.27354 8.42398 8.24149 8.44084 8.20455C8.4577 8.16761 8.46163 8.12735 8.45217 8.08857L7.93006 5.94728L9.84057 4.47631C9.87517 4.44967 9.89996 4.41517 9.91198 4.37692C9.924 4.33867 9.92273 4.2983 9.90832 4.26065C9.89392 4.223 9.86699 4.18966 9.83076 4.16462C9.79454 4.13959 9.75055 4.12392 9.70407 4.11949C8.67642 4.02214 7.13544 3.87777 7.13544 3.87777L6.07122 1.88539C6.05192 1.84936 6.02076 1.8188 5.98147 1.79736C5.94217 1.77593 5.89641 1.76453 5.84965 1.76453C5.8029 1.76453 5.75714 1.77593 5.71784 1.79736C5.67855 1.8188 5.64739 1.84936 5.62809 1.88539L4.56387 3.87777Z" fill="#FFDE59"/>
</svg>
